<?xml version="1.0" encoding="UTF-8" standalone="no"?><!DOCTYPE svg PUBLIC "-//W3C//DTD SVG 1.1//EN" "http://www.w3.org/Graphics/SVG/1.1/DTD/svg11.dtd"><svg width="100%" height="100%" viewBox="0 0 174 75" version="1.1" xmlns="http://www.w3.org/2000/svg" xmlns:xlink="http://www.w3.org/1999/xlink" xml:space="preserve" xmlns:serif="http://www.serif.com/" style="fill-rule:evenodd;clip-rule:evenodd;stroke-linecap:round;stroke-linejoin:round;stroke-miterlimit:1.5;"><circle cx="61.559" cy="26.291" r="8.368" style="fill:url(#_Linear1);"/><circle cx="107.757" cy="55.651" r="16.407" style="fill:url(#_Linear2);"/><path d="M151.667,28.607l-7.096,18.655c-0.562,1.593 -1.189,2.858 -1.88,3.795c-0.691,0.936 -1.487,1.616 -2.389,2.037c-0.902,0.422 -1.973,0.633 -3.214,0.633c-0.914,-0 -1.751,-0.112 -2.512,-0.334c-0.761,-0.223 -1.423,-0.51 -1.985,-0.861l1.019,-3.478c0.445,0.351 0.913,0.603 1.405,0.755c0.492,0.153 1.054,0.229 1.686,0.229c0.656,-0 1.224,-0.141 1.704,-0.422c0.48,-0.281 0.884,-0.843 1.212,-1.686l0.597,-1.511l-1.932,-4.567l-5.375,-13.245l5.34,0l3.338,10.54l0.913,3.513l1.089,-3.724l3.197,-10.329l4.883,0Zm-121.863,17.918c-1.78,-0 -3.402,-0.317 -4.865,-0.949c-1.464,-0.632 -2.653,-1.522 -3.566,-2.67l2.775,-2.811c0.562,0.844 1.312,1.534 2.249,2.073c0.936,0.539 2.049,0.808 3.337,0.808c0.913,0 1.645,-0.134 2.196,-0.404c0.55,-0.269 0.825,-0.697 0.825,-1.282c0,-0.375 -0.128,-0.697 -0.386,-0.966c-0.258,-0.27 -0.773,-0.486 -1.546,-0.65l-3.091,-0.633c-2.038,-0.421 -3.484,-1.059 -4.339,-1.914c-0.855,-0.855 -1.283,-1.962 -1.283,-3.32c0,-0.96 0.287,-1.862 0.861,-2.705c0.574,-0.843 1.435,-1.529 2.582,-2.056c1.148,-0.527 2.577,-0.79 4.286,-0.79c1.757,0 3.285,0.275 4.585,0.826c1.3,0.55 2.325,1.364 3.074,2.441l-2.881,2.811c-0.515,-0.82 -1.188,-1.446 -2.02,-1.88c-0.831,-0.433 -1.704,-0.65 -2.617,-0.65c-0.656,0 -1.218,0.071 -1.686,0.211c-0.469,0.141 -0.82,0.334 -1.054,0.58c-0.235,0.246 -0.352,0.556 -0.352,0.931c0,0.375 0.164,0.697 0.492,0.966c0.328,0.269 0.925,0.498 1.792,0.685l3.583,0.738c1.734,0.351 2.975,0.942 3.724,1.774c0.75,0.831 1.125,1.833 1.125,3.004c-0,1.124 -0.299,2.125 -0.896,3.003c-0.598,0.879 -1.476,1.57 -2.635,2.073c-1.16,0.504 -2.582,0.756 -4.269,0.756Zm96.463,-17.918l5.621,0l0,3.584l-5.621,-0l0,8.256c0,0.843 0.217,1.458 0.65,1.844c0.433,0.387 1.025,0.58 1.774,0.58c0.609,-0 1.13,-0.088 1.564,-0.264c0.433,-0.175 0.825,-0.415 1.176,-0.72l0.773,3.197c-0.562,0.445 -1.264,0.796 -2.108,1.054c-0.843,0.258 -1.733,0.387 -2.67,0.387c-1.171,-0 -2.207,-0.176 -3.109,-0.527c-0.901,-0.352 -1.604,-0.914 -2.108,-1.687c-0.503,-0.773 -0.755,-1.803 -0.755,-3.091l0,-9.029l-3.232,-0l-0,-3.584l3.232,0l0,-4.04l4.813,-1.335l0,5.375Zm-77.856,-0.351c1.78,0 3.344,0.363 4.691,1.089c1.346,0.726 2.4,1.768 3.161,3.127c0.762,1.358 1.142,2.998 1.142,4.918c0,1.897 -0.38,3.531 -1.142,4.901c-0.761,1.37 -1.815,2.418 -3.161,3.144c-1.347,0.726 -2.911,1.09 -4.691,1.09c-1.756,-0 -3.314,-0.364 -4.672,-1.09c-1.358,-0.726 -2.418,-1.774 -3.179,-3.144c-0.762,-1.37 -1.142,-3.004 -1.142,-4.901c-0,-1.92 0.38,-3.56 1.142,-4.918c0.761,-1.359 1.821,-2.401 3.179,-3.127c1.358,-0.726 2.916,-1.089 4.672,-1.089Zm50.498,14.04c-0.03,-0.317 -0.045,-0.652 -0.045,-1.006l0,-20.377l4.813,0l0,19.85c0,0.82 0.141,1.393 0.422,1.721c0.281,0.328 0.749,0.492 1.405,0.492c1.368,0 2.964,0.012 4.638,-1.868l-0,-12.501l4.813,0l-0,17.566l-4.813,0l-0,-2.041c-0.734,0.744 -2.105,1.664 -4.585,2.199c-0.597,0.129 -1.189,0.194 -1.774,0.194c-1.71,-0 -2.957,-0.416 -3.742,-1.248c-0.21,-0.223 -0.393,-0.482 -0.547,-0.777c-0.531,1.03 -1.675,1.989 -4.202,1.989c-0.819,0 -1.557,-0.14 -2.213,-0.421c-0.656,-0.281 -1.171,-0.709 -1.546,-1.283c-0.154,-0.236 -0.276,-0.496 -0.367,-0.782c-0.147,0.215 -0.318,0.417 -0.511,0.607c-0.632,0.621 -1.399,1.095 -2.301,1.423c-0.902,0.328 -1.833,0.492 -2.793,0.492c-1.195,-0 -2.225,-0.182 -3.092,-0.545c-0.866,-0.363 -1.534,-0.896 -2.002,-1.599c-0.469,-0.702 -0.703,-1.569 -0.703,-2.599c0,-1.312 0.422,-2.383 1.265,-3.215c0.843,-0.831 2.049,-1.399 3.618,-1.704l6.043,-1.221l0,-0.676c0,-1.007 -0.287,-1.792 -0.861,-2.354c-0.573,-0.562 -1.329,-0.843 -2.266,-0.843c-0.866,0 -1.627,0.223 -2.283,0.668c-0.656,0.445 -1.136,1.182 -1.441,2.213l-4.11,-1.265c0.398,-1.546 1.271,-2.787 2.617,-3.724c1.347,-0.937 3.156,-1.405 5.428,-1.405c1.546,0 2.893,0.24 4.04,0.72c1.148,0.48 2.044,1.201 2.688,2.161c0.644,0.96 0.966,2.166 0.966,3.618l0,7.132c0,0.89 0.422,1.335 1.265,1.335c1.2,0 1.787,-0.277 2.176,-0.926Zm-34.146,-10.43c0.234,-0.52 0.516,-0.98 0.845,-1.379c0.609,-0.738 1.353,-1.294 2.231,-1.669c0.879,-0.375 1.845,-0.562 2.899,-0.562c1.218,0 2.301,0.234 3.249,0.703c0.949,0.468 1.698,1.177 2.249,2.125c0.55,0.949 0.825,2.137 0.825,3.566l0,11.523l-4.813,0l0,-10.153c0,-1.499 -0.292,-2.535 -0.878,-3.109c-0.585,-0.574 -1.347,-0.861 -2.283,-0.861c-0.656,0 -1.294,0.158 -1.915,0.475c-0.621,0.316 -1.124,0.825 -1.511,1.528c-0.386,0.702 -0.579,1.639 -0.579,2.81l-0,9.31l-4.814,0l0,-17.566l4.322,0l0.173,3.259Zm25.927,6.754l0,1.089c0,0.632 -0.105,1.171 -0.316,1.616c-0.211,0.445 -0.504,0.796 -0.878,1.054c-0.375,0.258 -0.797,0.445 -1.265,0.562c-0.469,0.117 -0.949,0.176 -1.441,0.176c-0.608,-0 -1.13,-0.152 -1.563,-0.457c-0.433,-0.304 -0.65,-0.749 -0.65,-1.335c0,-0.609 0.205,-1.048 0.615,-1.317c0.41,-0.27 1.013,-0.486 1.809,-0.65l3.689,-0.738Zm-42.279,-6.781c-0.89,0 -1.645,0.205 -2.266,0.615c-0.62,0.41 -1.094,1.025 -1.422,1.845c-0.328,0.819 -0.492,1.85 -0.492,3.091c-0,1.242 0.164,2.272 0.492,3.092c0.328,0.82 0.802,1.434 1.422,1.844c0.621,0.41 1.376,0.615 2.266,0.615c0.867,0 1.611,-0.205 2.231,-0.615c0.621,-0.41 1.095,-1.024 1.423,-1.844c0.328,-0.82 0.492,-1.85 0.492,-3.092c0,-1.241 -0.164,-2.272 -0.492,-3.091c-0.328,-0.82 -0.802,-1.435 -1.423,-1.845c-0.62,-0.41 -1.364,-0.615 -2.231,-0.615Zm64.155,-5.761c-1.007,-0 -1.757,-0.217 -2.249,-0.65c-0.492,-0.433 -0.738,-1.072 -0.738,-1.915c0,-0.866 0.246,-1.516 0.738,-1.95c0.492,-0.433 1.242,-0.65 2.249,-0.65c1.007,0 1.756,0.217 2.248,0.65c0.492,0.434 0.738,1.084 0.738,1.95c-0,0.843 -0.246,1.482 -0.738,1.915c-0.492,0.433 -1.241,0.65 -2.248,0.65Z"/><circle cx="27.131" cy="50.385" r="11.141" style="fill:#ebebeb;fill-opacity:0;"/><path d="M27.131,39.244c6.149,0 11.141,4.993 11.141,11.141c0,6.149 -4.992,11.142 -11.141,11.142c-6.149,-0 -11.141,-4.993 -11.141,-11.142c0,-6.148 4.992,-11.141 11.141,-11.141Zm0,1.193c5.491,-0 9.949,4.458 9.949,9.948c0,5.491 -4.458,9.949 -9.949,9.949c-5.491,0 -9.948,-4.458 -9.948,-9.949c-0,-5.49 4.457,-9.948 9.948,-9.948Z"/><circle cx="147.131" cy="29.063" r="11.141" style="fill:#ebebeb;fill-opacity:0;"/><path d="M147.131,17.922c6.149,0 11.141,4.992 11.141,11.141c0,6.149 -4.992,11.141 -11.141,11.141c-6.149,0 -11.141,-4.992 -11.141,-11.141c0,-6.149 4.992,-11.141 11.141,-11.141Zm0,1.193c5.491,-0 9.949,4.457 9.949,9.948c0,5.491 -4.458,9.949 -9.949,9.949c-5.491,0 -9.948,-4.458 -9.948,-9.949c-0,-5.491 4.457,-9.948 9.948,-9.948Z"/><defs><linearGradient id="_Linear1" x1="0" y1="0" x2="1" y2="0" gradientUnits="userSpaceOnUse" gradientTransform="matrix(18.6396,-8.21966,8.21966,18.6396,51.2874,27.4037)"><stop offset="0" style="stop-color:#f00;stop-opacity:1"/><stop offset="1" style="stop-color:#a70086;stop-opacity:1"/></linearGradient><linearGradient id="_Linear2" x1="0" y1="0" x2="1" y2="0" gradientUnits="userSpaceOnUse" gradientTransform="matrix(-37.3144,20.8522,-20.8522,-37.3144,128.665,47.6989)"><stop offset="0" style="stop-color:#007d56;stop-opacity:1"/><stop offset="1" style="stop-color:#00b8eb;stop-opacity:1"/></linearGradient></defs></svg>